<svg width="48" height="48" viewBox="0 0 48 48" fill="none" xmlns="http://www.w3.org/2000/svg">
<path d="M14.5001 2.03028C14.5422 2.03455 14.5843 2.0396 14.6261 2.04493C15.6357 2.17346 16.5817 2.60785 17.338 3.28907C17.3561 3.30537 17.3739 3.32233 17.3917 3.33888C17.6124 3.5436 17.8136 3.76639 17.9923 4.00489C18.055 4.08852 18.1148 4.17444 18.172 4.26173C18.3648 4.55578 18.5263 4.86968 18.6534 5.19825C18.6918 5.29744 18.7269 5.39826 18.7589 5.50001C18.8072 5.65335 18.8485 5.8095 18.882 5.96778C18.8873 5.99308 18.8926 6.01861 18.8976 6.04395C19.098 7.07174 18.9713 8.13722 18.5333 9.08888L18.5489 9.09571C18.1501 9.96864 18.1872 11.0192 18.7423 11.8877C18.7982 11.9751 18.8587 12.0583 18.922 12.1377L21.9571 16.3076C22.0659 16.4753 22.188 16.654 22.3195 16.8369C22.9018 17.6471 23.4591 18.2457 23.587 18.2031L23.589 18.207C24.6765 17.888 25.84 17.9484 26.8888 18.3779L26.8966 18.3574C26.8949 18.367 26.8964 18.3728 26.8995 18.375C26.945 18.403 27.4632 17.6689 28.0577 16.7344C28.26 16.4164 28.4424 16.1143 28.5968 15.8555L29.5695 14.3311C30.1597 13.4772 30.2159 12.3138 29.6183 11.3789C29.6004 11.351 29.5794 11.3249 29.5607 11.2979C29.0784 10.3671 28.9005 9.30746 29.0538 8.26954C29.2098 7.21469 29.699 6.23719 30.4503 5.48048C31.2019 4.72366 32.1765 4.22678 33.2306 4.06349C34.2846 3.90025 35.3634 4.07927 36.3087 4.57325C37.254 5.0673 38.0167 5.85102 38.4845 6.80958C38.9522 7.76815 39.1005 8.85128 38.9083 9.9004C38.716 10.9496 38.1935 11.9102 37.4161 12.6406C36.6389 13.371 35.648 13.8332 34.589 13.96V13.9619C33.7942 14.0345 33.0324 14.4621 32.5489 15.1875H32.548L32.503 15.2549C32.4979 15.2631 32.4935 15.272 32.4884 15.2803L30.38 18.5889C30.3348 18.6583 30.2874 18.7284 30.2413 18.8008C29.6741 19.6923 29.2675 20.4496 29.3263 20.5029L29.3234 20.5049C29.7701 21.2798 29.9968 22.1602 29.9874 23.0527C29.9867 23.1177 29.9858 23.183 29.9825 23.2481C29.9385 24.1329 29.6586 24.9876 29.1749 25.7285C29.1325 25.7935 29.0916 25.8597 29.046 25.9229L29.0509 25.9268L29.0489 25.9424C29.0703 26.0581 29.5349 26.7654 30.1495 27.6182L30.1476 27.6201L31.7257 29.7988L31.7296 29.7949C32.291 30.5398 33.1309 30.9535 33.9952 30.9981V31.0049C35.0655 31.0049 36.1077 31.3486 36.9679 31.9854C37.8279 32.6222 38.4612 33.5185 38.7736 34.542C39.0859 35.5657 39.0604 36.6633 38.7023 37.6719C38.3441 38.6803 37.6712 39.5471 36.7833 40.1445C35.8953 40.7419 34.8388 41.0385 33.7696 40.9902C32.7007 40.9419 31.6753 40.5518 30.8448 39.877C30.0144 39.202 29.4222 38.2778 29.1564 37.2412C28.8906 36.2046 28.9651 35.1095 29.3683 34.1182L29.3624 34.1152C29.7024 33.202 29.592 32.1342 28.9708 31.2774C28.9488 31.2469 28.9254 31.2169 28.9025 31.1875L28.9093 31.1836L28.0011 29.9297L27.9962 29.9326C27.8845 29.7718 27.7656 29.6005 27.6388 29.4258C26.966 28.4987 26.37 27.7832 26.3048 27.8242L26.3038 27.8203C25.6365 28.0015 24.9389 28.0429 24.255 27.9404L24.253 27.9483L24.2521 27.9463C24.1629 27.8998 23.6336 28.6583 23.0499 29.6641H23.0489L18.798 37.0801C18.7658 37.1293 18.7348 37.1798 18.7052 37.2315C18.2298 38.0608 18.1918 39.0191 18.5157 39.8389L18.5021 39.8457C18.9664 40.8172 19.1045 41.9135 18.8956 42.9697C18.6866 44.0259 18.142 44.9865 17.3429 45.708C16.5436 46.4296 15.5322 46.8734 14.4601 46.9736C13.388 47.0738 12.3118 46.8246 11.3927 46.2637C10.474 45.7028 9.76056 44.8602 9.35949 43.8613C8.95844 42.8621 8.89094 41.7594 9.16711 40.7188C9.44332 39.6781 10.048 38.7538 10.8917 38.085C11.7355 37.4161 12.7735 37.0382 13.8497 37.0068L13.8487 36.9981C14.8167 36.9557 15.737 36.4436 16.2482 35.5518C16.2826 35.4917 16.3123 35.4296 16.3419 35.3682L20.0001 28.9873C20.1007 28.8176 20.2076 28.6387 20.3146 28.4522C20.9406 27.3599 21.4029 26.4482 21.3468 26.416C21.3457 26.4156 21.3442 26.416 21.3429 26.416L21.3478 26.4131C20.5916 25.6048 20.1248 24.5678 20.0216 23.4658C19.9185 22.3637 20.1843 21.2579 20.7775 20.3233L20.7716 20.3193C20.8439 20.2233 20.3848 19.4261 19.7277 18.5117C19.6985 18.4712 19.6687 18.4312 19.6398 18.3916L19.6437 18.3897L16.0851 13.5264C16.042 13.4568 15.9972 13.3867 15.9484 13.3193C15.3522 12.4968 14.4571 12.0322 13.5548 11.9775L13.5558 11.9756C13.5047 11.9711 13.4533 11.9651 13.4025 11.959C12.3946 11.8385 11.4478 11.4142 10.6876 10.7422C10.6566 10.7147 10.6251 10.6874 10.5948 10.6592C10.1395 10.236 9.76951 9.73385 9.50109 9.18067C9.45498 9.08562 9.41225 8.9886 9.37219 8.89063C9.26433 8.62688 9.17806 8.35318 9.11633 8.07227C9.1073 8.03116 9.09989 7.9895 9.09191 7.94825C8.94851 7.20654 8.97545 6.44559 9.16711 5.72169C9.19172 5.62875 9.21814 5.53597 9.24816 5.44434C9.30174 5.28088 9.36499 5.12003 9.43566 4.96192C9.47566 4.87243 9.51761 4.78391 9.56262 4.69727C9.99463 3.86571 10.6523 3.17075 11.462 2.69434C11.5597 2.63688 11.659 2.5827 11.7599 2.53224C12.6059 2.10895 13.5564 1.93444 14.5001 2.03028Z" fill="#37BEB0"/>
</svg>
